<?xml version="1.0" standalone="no"?>
<!DOCTYPE svg PUBLIC "-//W3C//DTD SVG 20010904//EN"
 "http://www.w3.org/TR/2001/REC-SVG-20010904/DTD/svg10.dtd">
<svg version="1.0" xmlns="http://www.w3.org/2000/svg"
 width="512.000000pt" height="512.000000pt" viewBox="0 0 512.000000 512.000000"
 preserveAspectRatio="xMidYMid meet">

<g transform="translate(0.000000,512.000000) scale(0.100000,-0.100000)"
fill="#000000" stroke="none">
<path d="M243 5106 c-88 -28 -176 -107 -216 -194 l-22 -47 0 -1880 0 -1880 29
-58 c36 -70 99 -130 174 -165 l57 -27 773 -3 c602 -2 773 -5 769 -15 -2 -7
-21 -83 -43 -169 l-38 -158 -127 0 c-99 0 -141 -4 -192 -20 -133 -41 -243
-155 -281 -291 -27 -93 -5 -158 61 -185 48 -21 2698 -21 2746 0 69 28 89 94
58 193 -40 133 -148 243 -279 283 -50 16 -93 20 -191 20 l-127 0 -38 157 c-22
87 -41 163 -43 170 -4 10 167 13 769 15 l773 3 57 27 c75 35 138 95 174 165
l29 58 0 1880 0 1880 -27 55 c-35 71 -97 133 -167 168 l-56 27 -2290 2 c-1865
1 -2298 -1 -2332 -11z m4594 -167 c38 -14 83 -57 99 -96 12 -27 14 -301 14
-1668 l0 -1635 -2390 0 -2390 0 0 1634 c0 1131 3 1643 11 1663 14 37 57 82 94
99 25 11 423 13 2282 14 1567 0 2260 -3 2280 -11z m-2577 -3572 c0 -1 -9 -28
-20 -60 -25 -72 -25 -152 0 -224 11 -32 20 -59 20 -60 0 -2 -435 -3 -967 -3
-1025 1 -1013 0 -1065 47 -41 36 -58 91 -58 194 0 53 3 99 7 102 6 7 2083 10
2083 4z m399 -35 c47 -34 72 -91 68 -149 -10 -143 -173 -208 -282 -112 -41 36
-59 86 -52 145 5 47 42 105 80 126 56 30 138 26 186 -10z m2289 -62 c4 -145
-32 -213 -126 -240 -32 -9 -1962 -16 -1962 -7 0 1 9 28 20 60 11 31 20 81 20
112 0 31 -9 81 -20 112 -11 32 -20 59 -20 60 0 2 469 2 1043 1 l1042 -3 3 -95z
m-1774 -577 c22 -87 41 -164 44 -170 3 -10 -133 -13 -658 -13 -525 0 -661 3
-658 13 3 6 22 83 44 170 l38 157 576 0 576 0 38 -157z m487 -365 c54 -18 105
-56 133 -99 14 -21 26 -43 26 -49 0 -7 -409 -10 -1260 -10 -1038 0 -1260 2
-1260 13 0 18 48 81 82 107 65 50 29 49 1174 49 793 1 1080 -2 1105 -11z"/>
<path d="M445 4761 c-48 -22 -69 -44 -90 -94 -13 -32 -15 -198 -15 -1430 l0
-1394 23 -44 c15 -27 38 -52 63 -66 l39 -23 2095 0 2095 0 39 23 c25 14 48 39
63 66 l23 44 0 1396 c0 1333 -1 1398 -19 1436 -22 48 -44 69 -94 90 -32 13
-266 15 -2109 15 -1990 0 -2075 -1 -2113 -19z m2025 -791 l0 -640 -182 0 -183
0 -27 53 c-59 112 -167 220 -285 285 l-51 27 43 58 c139 183 116 427 -53 579
-248 223 -648 79 -701 -253 -20 -119 18 -253 94 -338 21 -23 36 -43 34 -44 -2
-2 -26 -16 -54 -32 -121 -68 -216 -163 -278 -277 l-32 -58 -142 0 -143 0 0
640 0 640 980 0 980 0 0 -640z m2140 0 l0 -640 -184 0 -184 0 -43 73 c-57 96
-165 204 -256 254 l-73 40 23 21 c38 36 86 124 103 192 50 197 -47 399 -236
489 -71 34 -80 36 -175 35 -113 0 -173 -19 -257 -81 -192 -141 -224 -444 -65
-620 l35 -39 -66 -34 c-87 -45 -225 -181 -270 -267 l-33 -63 -140 0 -139 0 0
640 0 640 980 0 980 0 0 -640z m-3035 261 c93 -51 150 -176 125 -273 -33 -126
-126 -200 -251 -200 -189 0 -308 196 -224 367 63 130 220 177 350 106z m2110
15 c156 -65 202 -273 90 -403 -63 -74 -198 -107 -287 -70 -131 55 -194 215
-134 342 36 79 96 126 191 149 28 6 104 -3 140 -18z m-2095 -681 c87 -23 178
-75 241 -136 31 -32 62 -67 69 -78 l11 -21 -461 0 -461 0 22 31 c69 97 175
170 299 205 62 17 214 17 280 -1z m2135 0 c91 -24 174 -73 248 -147 37 -37 67
-72 67 -78 0 -7 -158 -10 -461 -10 l-461 0 32 40 c71 90 164 154 280 191 70
23 215 25 295 4z m-1255 -1045 l0 -640 -183 0 -183 0 -21 43 c-53 109 -168
225 -289 292 l-51 29 43 58 c76 103 104 216 84 329 -52 283 -351 439 -605 314
-164 -80 -262 -266 -235 -445 12 -75 56 -171 100 -217 16 -18 30 -34 30 -37 0
-3 -26 -19 -58 -36 -111 -59 -223 -171 -282 -283 l-25 -47 -142 0 -143 0 0
640 0 640 980 0 980 0 0 -640z m2140 0 l0 -640 -187 0 -188 1 -24 50 c-52 105
-172 226 -287 286 l-52 27 28 33 c113 128 141 310 71 458 -82 176 -270 278
-452 247 -225 -39 -370 -222 -357 -451 4 -67 11 -93 41 -153 19 -40 49 -86 66
-102 l31 -30 -73 -39 c-92 -51 -211 -169 -261 -259 l-38 -68 -139 0 -139 0 0
640 0 640 980 0 980 0 0 -640z m-3040 262 c67 -33 113 -97 130 -177 31 -151
-89 -296 -247 -298 -225 -2 -342 273 -184 431 84 84 189 99 301 44z m2116 12
c80 -33 142 -119 151 -207 15 -149 -101 -279 -252 -280 -102 0 -188 54 -231
148 -55 116 -18 236 99 325 50 38 160 44 233 14z m-2069 -689 c87 -27 165 -76
230 -143 88 -90 126 -82 -397 -82 l-461 0 20 29 c37 52 136 136 194 164 130
63 279 75 414 32z m2107 9 c92 -24 173 -72 249 -146 37 -37 67 -72 67 -78 0
-7 -148 -10 -455 -10 -325 0 -455 3 -455 11 0 6 30 41 68 78 72 71 157 122
243 145 72 20 207 20 283 0z"/>
</g>
</svg>
